<svg width="45" height="42" viewBox="0 0 45 42" fill="none" xmlns="http://www.w3.org/2000/svg">
<path d="M39.4123 27.4147V11.0712L27.9385 3.66518L16.4919 11.0712V17.8747H13.3725V9.64021L27.9385 -0.000175476L42.5316 9.64021V27.4147H39.4123ZM29.0235 14.1089H31.1935V12.1005H29.0235V14.1089ZM24.6835 14.1089H26.8535V12.1005H24.6835V14.1089ZM29.0235 18.1258H31.1935V16.1173H29.0235V18.1258ZM24.6835 18.1258H26.8535V16.1173H24.6835V18.1258ZM28.1826 41.7497L11.3653 37.281V40.0928H0V20.7618H16.4647L30.1899 25.5318C31.1483 25.8498 31.953 26.3603 32.604 27.0632C33.255 27.7662 33.5805 28.8457 33.5805 30.3018H39.8463C41.3201 30.3018 42.5475 30.783 43.5285 31.7453C44.5095 32.7077 45 34.0508 45 35.7747V36.9798L28.1826 41.7497ZM3.11935 37.2057H8.19168V23.6489H3.11935V37.2057ZM27.9656 38.7622L41.7722 34.8742C41.5732 34.2193 41.3246 33.7747 41.0262 33.5403C40.7278 33.306 40.3345 33.1889 39.8463 33.1889H28.5895C27.5588 33.1889 26.5958 33.1219 25.7007 32.988C24.8056 32.8541 23.9964 32.6868 23.2731 32.4859L18.7432 31.2056L19.8825 28.3938L23.9069 29.6287C24.8044 29.8933 25.6329 30.0716 26.3924 30.1637C27.1519 30.2558 28.4358 30.3018 30.2441 30.3018C30.2441 29.8666 30.1621 29.4587 29.9979 29.0779C29.8338 28.6972 29.5519 28.4238 29.1521 28.2577L15.9494 23.6489H11.3653V34.2433L27.9656 38.7622Z" fill="#DF1AA7"/>
</svg>
