<svg width="50" height="43" viewBox="0 0 50 43" fill="none" xmlns="http://www.w3.org/2000/svg">
<path d="M25 0C18.2083 0 17.3605 0.0263372 14.6938 0.126418C12.0312 0.231767 10.2188 0.584685 8.625 1.10616C6.98125 1.64344 5.58542 2.36508 4.19583 3.5362C2.80625 4.70733 1.94792 5.88197 1.3125 7.26905C0.69375 8.61225 0.272917 10.1398 0.15 12.3837C0.025 14.6312 0 15.3457 0 21.0697C0 26.7937 0.03125 27.5082 0.15 29.7557C0.275 31.9979 0.69375 33.5272 1.3125 34.8704C1.95 36.254 2.80625 37.4321 4.19583 38.6033C5.58542 39.7726 6.97917 40.4977 8.625 41.0333C10.2208 41.553 12.0333 41.9094 14.6938 42.013C17.3605 42.1184 18.2083 42.1394 25 42.1394C31.7917 42.1394 32.6395 42.1131 35.3063 42.013C37.9667 41.9077 39.7812 41.553 41.375 41.0333C43.0167 40.496 44.4145 39.7726 45.8042 38.6033C47.1917 37.4321 48.052 36.2593 48.6875 34.8704C49.3042 33.5272 49.727 31.9979 49.85 29.7557C49.975 27.5082 50 26.7937 50 21.0697C50 15.3457 49.9688 14.6312 49.85 12.3837C49.725 10.1416 49.3042 8.6105 48.6875 7.26905C48.05 5.88372 47.1917 4.70733 45.8042 3.5362C44.4145 2.36508 43.023 1.64169 41.375 1.10616C39.7812 0.584685 37.9667 0.230012 35.3063 0.126418C32.6395 0.0210697 31.7917 0 25 0ZM25 3.79255C31.673 3.79255 32.4688 3.82064 35.1042 3.91722C37.5417 4.01378 38.8645 4.35441 39.7438 4.64587C40.9145 5.02688 41.7438 5.48339 42.623 6.21908C43.4958 6.95652 44.0375 7.65709 44.4895 8.64385C44.8313 9.38481 45.2395 10.4997 45.35 12.554C45.4688 14.7769 45.4958 15.4441 45.4958 21.0697C45.4958 26.6953 45.4645 27.3643 45.3417 29.5854C45.2145 31.6397 44.8083 32.7546 44.4645 33.4956C43.998 34.4823 43.4667 35.1812 42.5917 35.9222C41.7188 36.6578 40.875 37.1143 39.7167 37.4953C38.8417 37.7833 37.498 38.1274 35.0605 38.2205C32.4062 38.3206 31.625 38.3433 24.9375 38.3433C18.248 38.3433 17.4667 38.317 14.8146 38.2135C12.375 38.1063 11.0312 37.7639 10.1562 37.4742C8.97083 37.081 8.15625 36.6333 7.28333 35.8958C6.40625 35.1601 5.84583 34.449 5.40833 33.4728C5.06458 32.7354 4.66042 31.6029 4.53333 29.5486C4.43958 27.3362 4.40625 26.6532 4.40625 21.0434C4.40625 15.4319 4.43958 14.7471 4.53333 12.5084C4.66042 10.4541 5.06458 9.32335 5.40833 8.58591C5.84583 7.5851 6.40625 6.90033 7.28333 6.16114C8.15625 5.42545 8.97083 4.95138 10.1562 4.58442C11.0312 4.29296 12.3458 3.95057 14.7833 3.84522C17.4395 3.76621 18.2208 3.73988 24.9062 3.73988L25 3.79255ZM25 10.2504C17.9062 10.2504 12.1625 15.0965 12.1625 21.0697C12.1625 27.0483 17.9125 31.889 25 31.889C32.0938 31.889 37.8375 27.043 37.8375 21.0697C37.8375 15.0912 32.0875 10.2504 25 10.2504ZM25 28.0929C20.3958 28.0929 16.6667 24.9501 16.6667 21.0697C16.6667 17.1893 20.3958 14.0465 25 14.0465C29.6042 14.0465 33.3333 17.1893 33.3333 21.0697C33.3333 24.9501 29.6042 28.0929 25 28.0929ZM41.3458 9.82376C41.3458 11.2196 40 12.3521 38.3458 12.3521C36.6895 12.3521 35.3458 11.2179 35.3458 9.82376C35.3458 8.42964 36.6917 7.29714 38.3458 7.29714C39.998 7.29539 41.3458 8.42964 41.3458 9.82376Z" fill="#E2E2E2"/>
</svg>
