<svg width="52" height="43" viewBox="0 0 52 43" fill="none" xmlns="http://www.w3.org/2000/svg">
<path opacity="0.9" d="M46.9041 28.7375L39.5505 28.0563C38.6864 27.9743 37.8105 28.0519 36.9887 28.2835C36.1669 28.5151 35.4205 28.8945 34.8056 29.3934L29.4771 33.7087C21.261 30.322 14.5827 24.9101 10.4035 18.2519L15.7564 13.9113C17.0034 12.9036 17.6113 11.4961 17.4063 10.0633L16.5692 4.15201C16.4047 3.00749 15.7265 1.95195 14.6639 1.18634C13.6013 0.420719 12.2284 -0.00151789 10.8065 4.10033e-06H5.80101C2.52888 4.10033e-06 -0.190949 2.2069 0.01052 4.85574C1.54585 24.8895 21.3141 40.8867 46.008 42.1309C49.2766 42.2942 51.9999 40.0901 51.9999 37.4384V33.3821C52.0071 32.2349 51.4907 31.126 50.5501 30.2687C49.6095 29.4113 48.3109 28.866 46.9041 28.7375Z" fill="#E2E2E2"/>
</svg>
