<svg width="308" height="147" viewBox="0 0 308 147" fill="none" xmlns="http://www.w3.org/2000/svg">
<g filter="url(#filter0_d_363_5)">
<path fill-rule="evenodd" clip-rule="evenodd" d="M175.312 43.8644C174.795 39.5183 174.037 27.2801 175.903 19.7279C178.571 17.9682 179.192 19.2502 179.448 22.8567C178.729 34.3219 178.34 40.6645 179.448 40.7356L182.402 30.8411L184.676 21.4547C180.961 37.5852 179.13 45.1034 178.266 44.3114L177.675 44.7584H177.084C176.691 44.7584 175.785 44.5796 175.312 43.8644ZM187.39 12.1293C188.618 9.04363 189.93 7.50131 191.854 6.76568C194.123 6.22552 194.435 7.73126 194.808 10.7884C194.783 15.1234 194.475 18.7771 194.188 22.1856C193.726 27.6547 193.318 32.4926 194.218 38.5008C195.118 38.4136 196.243 35.936 197.695 32.7377C199.263 29.2859 201.211 24.9945 203.67 21.9628C209.019 16.6554 209.263 27.1096 208.988 49.2281C210.004 52.7548 216.387 47.9494 221.071 39.6316C221.823 38.2957 222.531 36.8691 223.167 35.372C223.64 34.3141 224.095 33.3082 224.535 32.3369L224.536 32.3345C224.536 32.3345 225.522 30.1596 225.986 29.1143C225.986 29.1143 221.735 38.7852 219.998 42.2123C215.611 50.8675 212.611 53.8209 208.988 53.2509C207.32 53.2045 205.443 50.6301 204.852 48.7811L204.812 48.657C204.219 46.8112 203.307 43.9774 204.852 26.4325C204.916 23.7073 203.903 25.1678 201.307 30.0083C196.021 40.3929 195.539 40.6039 194.336 41.1305L194.29 41.1504C194.267 41.1609 194.242 41.1716 194.218 41.1826C192.028 41.6393 190.984 40.389 190.673 37.1598C190.63 27.5914 191.854 12.1293 191.854 12.1293C192.222 5.41419 190.803 6.81999 187.39 12.1293ZM228.538 22.9516C225.967 12.9106 224.627 6.94656 225.53 3.63689C226.112 2.02938 227.302 1.07241 228.484 0.508074C229.666 -0.0562575 230.2 -0.273782 232.029 0.508074C232.794 1.251 233.089 1.83025 233.181 2.60379C233.217 2.91024 233.221 3.24719 233.21 3.63689C233.202 4.09111 233.192 4.53799 233.181 4.97776C233.153 4.86897 233 5.5 233.101 4.66021C233.202 3.82042 232.567 2.51627 231.438 2.29592C229.025 1.80906 229.226 3.67336 229.492 6.13253C229.56 6.76143 229.632 7.42924 229.666 8.10657C230.028 11.0632 230.406 13.445 230.856 15.7229C231.463 18.7981 232.202 21.6838 233.21 25.5385C234.694 31.124 236.363 34.7354 238.222 38.759L238.228 38.7708C238.483 39.323 238.742 39.8831 239.004 40.457C239.614 41.7898 240.242 43.1978 240.891 44.7584C243.529 49.9417 242.059 55.9803 239.709 61.7433C238.42 64.8834 235.996 66.5663 234.014 67.9432C233.736 68.1362 233.467 68.3232 233.21 68.5074C231.154 69.4067 229.989 69.106 227.893 67.4929C227.893 67.4929 230.177 66.9524 230.847 66.66C231.631 66.232 232.174 65.7891 233.21 64.8722L233.218 64.8644C234.622 63.3603 235.41 62.5153 236.755 59.0615C238.285 54.0305 238.782 50.9887 236.164 43.4174C235.896 42.86 235.635 42.333 235.382 41.8285C235.053 41.1722 234.736 40.5543 234.43 39.9579C232.533 36.2581 231.062 33.3879 229.666 27.3264L229.596 27.0573C229.224 25.6184 228.871 24.2509 228.538 22.9516ZM258.26 27.7734C254.534 20.6252 252.712 16.9163 252.707 13.9172C252.74 10.5022 253.366 9.33832 256.251 9.44749C257.464 9.78337 257.888 9.98334 258.615 10.3414C259.822 11.4793 260.015 12.3106 260.327 13.6595L260.334 13.6906C260.351 13.7645 260.369 13.84 260.387 13.9172C260.576 12.7295 260.814 12.1004 262.159 11.2354C264.954 10.4819 266.489 11.1639 267.477 12.1293C270.244 14.7546 266.564 18.7253 261.256 24.4529C260.411 25.3656 259.524 26.3228 258.615 27.3264C258.496 27.4773 258.378 27.6263 258.26 27.7734Z" fill="#FF005B"/>
<path d="M66.9478 59.961V61.4376C65.1348 61.4868 63.7484 61.6836 62.7886 62.0282C61.8821 62.3235 61.2689 62.9141 60.9489 63.8C60.629 64.6367 60.469 65.9656 60.469 67.7866V104.405C60.469 106.176 60.629 107.505 60.9489 108.391C61.2689 109.277 61.8821 109.868 62.7886 110.163C63.7484 110.458 65.1348 110.655 66.9478 110.754V112.23C65.7213 112.132 64.175 112.083 62.3087 112.083C60.4957 112.033 58.656 112.009 56.7897 112.009C54.7101 112.009 52.7638 112.033 50.9509 112.083C49.1379 112.083 47.6715 112.132 46.5517 112.23V110.754C48.3647 110.655 49.7244 110.458 50.6309 110.163C51.5907 109.868 52.2306 109.277 52.5505 108.391C52.8705 107.505 53.0305 106.176 53.0305 104.405V63.8L53.3504 64.0215L33.7542 112.599H32.4745L12.3184 64.6859V103.666C12.3184 105.438 12.4784 106.841 12.7983 107.874C13.1715 108.859 13.8647 109.572 14.8779 110.015C15.9443 110.409 17.5174 110.655 19.597 110.754V112.23C18.6372 112.132 17.3841 112.083 15.8377 112.083C14.2913 112.033 12.8249 112.009 11.4386 112.009C10.1055 112.009 8.74574 112.033 7.35935 112.083C6.02627 112.083 4.90649 112.132 4 112.23V110.754C5.81298 110.655 7.17272 110.409 8.07921 110.015C9.03902 109.572 9.67889 108.859 9.99883 107.874C10.3188 106.841 10.4787 105.438 10.4787 103.666V67.7866C10.4787 65.9656 10.3188 64.6367 9.99883 63.8C9.67889 62.9141 9.03902 62.3235 8.07921 62.0282C7.17272 61.6836 5.81298 61.4868 4 61.4376V59.961C4.90649 60.0102 6.02627 60.0595 7.35935 60.1087C8.74574 60.1579 10.1055 60.1825 11.4386 60.1825C12.6117 60.1825 13.8114 60.1579 15.0379 60.1087C16.3176 60.0595 17.3841 60.0102 18.2372 59.961L36.3937 104.109L35.034 104.7L53.0305 60.1825C53.6703 60.1825 54.2835 60.1825 54.8701 60.1825C55.51 60.1825 56.1498 60.1825 56.7897 60.1825C58.656 60.1825 60.4957 60.1579 62.3087 60.1087C64.175 60.0595 65.7213 60.0102 66.9478 59.961Z" fill="#FF005B"/>
<path d="M75.7983 112.589C74.2825 112.589 72.9701 112.333 71.861 111.821C70.7518 111.275 69.9015 110.524 69.31 109.569C68.7554 108.613 68.4781 107.504 68.4781 106.241C68.4781 104.74 68.8479 103.511 69.5873 102.556C70.3636 101.6 71.3434 100.833 72.5264 100.253C73.7095 99.6725 74.948 99.1947 76.242 98.8194C77.5729 98.4099 78.8299 98.0345 80.013 97.6933C81.196 97.3179 82.1573 96.8913 82.8967 96.4136C83.6731 95.9359 84.0612 95.3046 84.0612 94.5197V91.3462C84.0612 89.9129 83.8209 88.821 83.3403 88.0702C82.8967 87.3195 82.2867 86.8247 81.5103 86.5858C80.7339 86.3128 79.8651 86.1763 78.9039 86.1763C77.9796 86.1763 76.9814 86.2958 75.9092 86.5346C74.8741 86.7735 74.0422 87.2683 73.4137 88.019C74.1162 88.1555 74.7262 88.4968 75.2438 89.0428C75.7614 89.5888 76.0201 90.2883 76.0201 91.1414C76.0201 91.9945 75.7244 92.677 75.1329 93.1889C74.5413 93.6666 73.7834 93.9055 72.8592 93.9055C71.787 93.9055 70.9921 93.5984 70.4746 92.9841C69.9939 92.3358 69.7536 91.6191 69.7536 90.8343C69.7536 89.9471 69.9939 89.2305 70.4746 88.6845C70.9552 88.1385 71.5652 87.6266 72.3046 87.1489C73.1549 86.6029 74.2456 86.1422 75.5765 85.7668C76.9444 85.3573 78.4787 85.1526 80.1793 85.1526C81.6951 85.1526 82.9891 85.3232 84.0612 85.6645C85.1334 85.9716 86.0207 86.4323 86.7231 87.0465C87.6844 87.8655 88.3129 88.8721 88.6086 90.0665C88.9044 91.2267 89.0523 92.6258 89.0523 94.2638V108.494C89.0523 109.347 89.1817 109.961 89.4405 110.336C89.7362 110.712 90.1799 110.899 90.7714 110.899C91.1781 110.899 91.5663 110.814 91.936 110.643C92.3057 110.473 92.7493 110.2 93.2669 109.824L93.8769 110.695C93.1006 111.241 92.3611 111.701 91.6587 112.077C90.9563 112.418 90.0135 112.589 88.8305 112.589C87.7583 112.589 86.871 112.418 86.1686 112.077C85.4661 111.735 84.9301 111.241 84.5603 110.592C84.2276 109.91 84.0612 109.057 84.0612 108.033C83.063 109.569 81.8615 110.712 80.4566 111.462C79.0887 112.213 77.5359 112.589 75.7983 112.589ZM77.7947 110.541C79.0148 110.541 80.1424 110.217 81.1775 109.569C82.2497 108.92 83.2109 107.948 84.0612 106.651V96.6184C83.6176 97.1985 82.9706 97.6933 82.1203 98.1028C81.27 98.4781 80.3457 98.8706 79.3475 99.28C78.3493 99.6554 77.3881 100.116 76.4638 100.662C75.5765 101.174 74.8371 101.856 74.2456 102.71C73.654 103.563 73.3583 104.672 73.3583 106.037C73.3583 107.402 73.7465 108.494 74.5228 109.313C75.3362 110.132 76.4268 110.541 77.7947 110.541Z" fill="#FF005B"/>
<path d="M99.0924 73.0726C100.054 73.0726 100.885 73.3968 101.588 74.0452C102.29 74.6935 102.642 75.4613 102.642 76.3485C102.642 77.2358 102.29 78.0036 101.588 78.6519C100.885 79.3003 100.054 79.6245 99.0924 79.6245C98.1312 79.6245 97.2993 79.3003 96.5969 78.6519C95.8944 78.0036 95.5432 77.2358 95.5432 76.3485C95.5432 75.4613 95.8944 74.6935 96.5969 74.0452C97.2993 73.3968 98.1312 73.0726 99.0924 73.0726ZM101.976 85.3062V107.47C101.976 108.903 102.29 109.876 102.919 110.387C103.584 110.899 104.675 111.155 106.191 111.155V112.23C105.562 112.196 104.601 112.162 103.307 112.128C102.05 112.06 100.775 112.025 99.4806 112.025C98.2236 112.025 96.9481 112.06 95.6541 112.128C94.3602 112.162 93.3989 112.196 92.7704 112.23V111.155C94.2862 111.155 95.3584 110.899 95.9869 110.387C96.6523 109.876 96.9851 108.903 96.9851 107.47V91.4485C96.9851 89.9129 96.6893 88.7868 96.0978 88.0702C95.5062 87.3195 94.3971 86.9441 92.7704 86.9441V85.8692C93.9535 85.9716 95.0996 86.0228 96.2087 86.0228C97.2808 86.0228 98.2975 85.9716 99.2588 85.8692C100.257 85.7327 101.163 85.545 101.976 85.3062Z" fill="#FF005B"/>
<path d="M114.119 112.589C112.603 112.589 111.291 112.333 110.182 111.821C109.073 111.275 108.222 110.524 107.631 109.569C107.076 108.613 106.799 107.504 106.799 106.241C106.799 104.74 107.169 103.511 107.908 102.556C108.685 101.6 109.664 100.833 110.847 100.253C112.03 99.6725 113.269 99.1947 114.563 98.8194C115.894 98.4099 117.151 98.0345 118.334 97.6933C119.517 97.3179 120.478 96.8913 121.218 96.4136C121.994 95.9359 122.382 95.3046 122.382 94.5197V91.3462C122.382 89.9129 122.142 88.821 121.661 88.0702C121.218 87.3195 120.608 86.8247 119.831 86.5858C119.055 86.3128 118.186 86.1763 117.225 86.1763C116.3 86.1763 115.302 86.2958 114.23 86.5346C113.195 86.7735 112.363 87.2683 111.735 88.019C112.437 88.1555 113.047 88.4968 113.565 89.0428C114.082 89.5888 114.341 90.2883 114.341 91.1414C114.341 91.9945 114.045 92.677 113.454 93.1889C112.862 93.6666 112.104 93.9055 111.18 93.9055C110.108 93.9055 109.313 93.5984 108.795 92.9841C108.315 92.3358 108.075 91.6191 108.075 90.8343C108.075 89.9471 108.315 89.2305 108.795 88.6845C109.276 88.1385 109.886 87.6266 110.625 87.1489C111.476 86.6029 112.566 86.1422 113.897 85.7668C115.265 85.3573 116.8 85.1526 118.5 85.1526C120.016 85.1526 121.31 85.3232 122.382 85.6645C123.454 85.9716 124.342 86.4323 125.044 87.0465C126.005 87.8655 126.634 88.8721 126.93 90.0665C127.225 91.2267 127.373 92.6258 127.373 94.2638V108.494C127.373 109.347 127.503 109.961 127.761 110.336C128.057 110.712 128.501 110.899 129.092 110.899C129.499 110.899 129.887 110.814 130.257 110.643C130.627 110.473 131.07 110.2 131.588 109.824L132.198 110.695C131.421 111.241 130.682 111.701 129.98 112.077C129.277 112.418 128.334 112.589 127.151 112.589C126.079 112.589 125.192 112.418 124.489 112.077C123.787 111.735 123.251 111.241 122.881 110.592C122.548 109.91 122.382 109.057 122.382 108.033C121.384 109.569 120.182 110.712 118.777 111.462C117.41 112.213 115.857 112.589 114.119 112.589ZM116.116 110.541C117.336 110.541 118.463 110.217 119.498 109.569C120.571 108.92 121.532 107.948 122.382 106.651V96.6184C121.938 97.1985 121.291 97.6933 120.441 98.1028C119.591 98.4781 118.667 98.8706 117.668 99.28C116.67 99.6554 115.709 100.116 114.785 100.662C113.897 101.174 113.158 101.856 112.566 102.71C111.975 103.563 111.679 104.672 111.679 106.037C111.679 107.402 112.067 108.494 112.844 109.313C113.657 110.132 114.748 110.541 116.116 110.541Z" fill="#FF005B"/>
<path d="M148.338 85.1526C149.336 85.1526 150.205 85.3403 150.944 85.7157C151.721 86.091 152.312 86.5858 152.719 87.2001C153.163 87.7802 153.385 88.4456 153.385 89.1963C153.385 90.0494 153.089 90.8002 152.497 91.4485C151.943 92.0969 151.185 92.4211 150.224 92.4211C149.447 92.4211 148.763 92.1993 148.172 91.7556C147.58 91.2779 147.284 90.6125 147.284 89.7594C147.284 89.111 147.469 88.565 147.839 88.1214C148.246 87.6437 148.689 87.2683 149.17 86.9953C148.911 86.6541 148.523 86.4834 148.005 86.4834C146.859 86.4834 145.806 86.8076 144.844 87.456C143.883 88.0702 143.07 88.8721 142.404 89.8617C141.739 90.8513 141.221 91.9092 140.852 93.0353C140.482 94.1273 140.297 95.151 140.297 96.1065V106.958C140.297 108.63 140.815 109.756 141.85 110.336C142.922 110.882 144.364 111.155 146.175 111.155V112.23C145.325 112.196 144.123 112.162 142.571 112.128C141.018 112.06 139.373 112.025 137.635 112.025C136.378 112.025 135.121 112.06 133.864 112.128C132.644 112.162 131.72 112.196 131.091 112.23V111.155C132.607 111.155 133.679 110.899 134.308 110.387C134.973 109.876 135.306 108.903 135.306 107.47V91.4485C135.306 89.9129 135.01 88.7868 134.419 88.0702C133.827 87.3195 132.718 86.9441 131.091 86.9441V85.8692C132.274 85.9716 133.42 86.0228 134.53 86.0228C135.602 86.0228 136.618 85.9716 137.58 85.8692C138.578 85.7327 139.484 85.545 140.297 85.3062V91.7045C140.704 90.7149 141.277 89.7253 142.016 88.7356C142.792 87.7119 143.717 86.8588 144.789 86.1763C145.861 85.4938 147.044 85.1526 148.338 85.1526Z" fill="#FF005B"/>
<path d="M160.888 112.589C159.373 112.589 158.06 112.333 156.951 111.821C155.842 111.275 154.992 110.524 154.4 109.569C153.846 108.613 153.568 107.504 153.568 106.241C153.568 104.74 153.938 103.511 154.677 102.556C155.454 101.6 156.433 100.833 157.617 100.253C158.8 99.6725 160.038 99.1947 161.332 98.8194C162.663 98.4099 163.92 98.0345 165.103 97.6933C166.286 97.3179 167.247 96.8913 167.987 96.4136C168.763 95.9359 169.151 95.3046 169.151 94.5197V91.3462C169.151 89.9129 168.911 88.821 168.43 88.0702C167.987 87.3195 167.377 86.8247 166.6 86.5858C165.824 86.3128 164.955 86.1763 163.994 86.1763C163.07 86.1763 162.071 86.2958 160.999 86.5346C159.964 86.7735 159.132 87.2683 158.504 88.019C159.206 88.1555 159.816 88.4968 160.334 89.0428C160.851 89.5888 161.11 90.2883 161.11 91.1414C161.11 91.9945 160.814 92.677 160.223 93.1889C159.631 93.6666 158.874 93.9055 157.949 93.9055C156.877 93.9055 156.082 93.5984 155.565 92.9841C155.084 92.3358 154.844 91.6191 154.844 90.8343C154.844 89.9471 155.084 89.2305 155.565 88.6845C156.045 88.1385 156.655 87.6266 157.395 87.1489C158.245 86.6029 159.336 86.1422 160.667 85.7668C162.035 85.3573 163.569 85.1526 165.269 85.1526C166.785 85.1526 168.079 85.3232 169.151 85.6645C170.224 85.9716 171.111 86.4323 171.813 87.0465C172.774 87.8655 173.403 88.8721 173.699 90.0665C173.994 91.2267 174.142 92.6258 174.142 94.2638V108.494C174.142 109.347 174.272 109.961 174.531 110.336C174.826 110.712 175.27 110.899 175.862 110.899C176.268 110.899 176.656 110.814 177.026 110.643C177.396 110.473 177.839 110.2 178.357 109.824L178.967 110.695C178.191 111.241 177.451 111.701 176.749 112.077C176.046 112.418 175.104 112.589 173.921 112.589C172.848 112.589 171.961 112.418 171.259 112.077C170.556 111.735 170.02 111.241 169.65 110.592C169.318 109.91 169.151 109.057 169.151 108.033C168.153 109.569 166.952 110.712 165.547 111.462C164.179 112.213 162.626 112.589 160.888 112.589ZM162.885 110.541C164.105 110.541 165.232 110.217 166.268 109.569C167.34 108.92 168.301 107.948 169.151 106.651V96.6184C168.708 97.1985 168.061 97.6933 167.21 98.1028C166.36 98.4781 165.436 98.8706 164.438 99.28C163.439 99.6554 162.478 100.116 161.554 100.662C160.667 101.174 159.927 101.856 159.336 102.71C158.744 103.563 158.448 104.672 158.448 106.037C158.448 107.402 158.837 108.494 159.613 109.313C160.426 110.132 161.517 110.541 162.885 110.541Z" fill="#FF005B"/>
<path d="M207.115 59.1489C209.782 59.1489 211.808 59.4442 213.194 60.0349C214.581 60.5762 215.807 61.1915 216.874 61.8805C217.513 62.225 218.02 62.4957 218.393 62.6926C218.82 62.8403 219.22 62.9141 219.593 62.9141C220.126 62.9141 220.5 62.6434 220.713 62.102C220.979 61.5606 221.193 60.7485 221.353 59.6657H223.192C223.139 60.5024 223.059 61.5114 222.952 62.6926C222.899 63.8246 222.846 65.3504 222.792 67.2699C222.792 69.1401 222.792 71.6256 222.792 74.7263H220.953C220.793 72.3639 220.233 70.0999 219.273 67.9343C218.313 65.7687 216.9 63.9969 215.034 62.6188C213.221 61.2407 210.821 60.5516 207.835 60.5516C205.009 60.5516 202.663 61.3391 200.797 62.9141C198.984 64.4891 198.077 66.5562 198.077 69.1155C198.077 71.3303 198.69 73.2006 199.917 74.7263C201.143 76.2029 202.77 77.5564 204.796 78.7868C206.875 79.968 209.115 81.2477 211.515 82.6258C214.287 84.2007 216.74 85.7757 218.873 87.3507C221.059 88.8764 222.766 90.5744 223.992 92.4447C225.272 94.315 225.912 96.579 225.912 99.2367C225.912 102.387 225.139 104.995 223.592 107.062C222.046 109.129 219.993 110.68 217.433 111.713C214.874 112.747 212.048 113.264 208.955 113.264C206.129 113.264 203.889 112.968 202.236 112.378C200.583 111.787 199.17 111.172 197.997 110.532C196.824 109.843 195.918 109.499 195.278 109.499C194.745 109.499 194.345 109.769 194.078 110.311C193.865 110.852 193.678 111.664 193.518 112.747H191.678C191.785 111.713 191.838 110.508 191.838 109.129C191.892 107.702 191.918 105.857 191.918 103.592C191.972 101.328 191.998 98.4739 191.998 95.0286H193.838C194.051 97.9817 194.638 100.738 195.598 103.297C196.611 105.857 198.131 107.924 200.157 109.499C202.236 111.024 204.983 111.787 208.395 111.787C210.155 111.787 211.808 111.467 213.354 110.827C214.954 110.138 216.26 109.08 217.273 107.653C218.287 106.176 218.793 104.282 218.793 101.968C218.793 99.9504 218.26 98.2032 217.193 96.7266C216.18 95.2009 214.741 93.7982 212.874 92.5185C211.008 91.1896 208.822 89.8362 206.316 88.4581C203.809 87.0307 201.463 85.5788 199.277 84.1023C197.091 82.6258 195.331 80.9278 193.998 79.0083C192.718 77.0396 192.078 74.6771 192.078 71.9209C192.078 69.0171 192.772 66.63 194.158 64.7598C195.598 62.8403 197.464 61.4376 199.757 60.5516C202.05 59.6165 204.503 59.1489 207.115 59.1489Z" fill="#FF005B"/>
<path d="M233.765 73.0726C234.726 73.0726 235.558 73.3968 236.261 74.0452C236.963 74.6935 237.314 75.4613 237.314 76.3485C237.314 77.2358 236.963 78.0036 236.261 78.6519C235.558 79.3003 234.726 79.6245 233.765 79.6245C232.804 79.6245 231.972 79.3003 231.27 78.6519C230.567 78.0036 230.216 77.2358 230.216 76.3485C230.216 75.4613 230.567 74.6935 231.27 74.0452C231.972 73.3968 232.804 73.0726 233.765 73.0726ZM236.649 85.3062V107.47C236.649 108.903 236.963 109.876 237.592 110.387C238.257 110.899 239.348 111.155 240.863 111.155V112.23C240.235 112.196 239.274 112.162 237.98 112.128C236.723 112.06 235.447 112.025 234.153 112.025C232.896 112.025 231.621 112.06 230.327 112.128C229.033 112.162 228.072 112.196 227.443 112.23V111.155C228.959 111.155 230.031 110.899 230.66 110.387C231.325 109.876 231.658 108.903 231.658 107.47V91.4485C231.658 89.9129 231.362 88.7868 230.771 88.0702C230.179 87.3195 229.07 86.9441 227.443 86.9441V85.8692C228.626 85.9716 229.772 86.0228 230.881 86.0228C231.954 86.0228 232.97 85.9716 233.931 85.8692C234.93 85.7327 235.835 85.545 236.649 85.3062Z" fill="#FF005B"/>
<path d="M249.735 72.1001V107.47C249.735 108.903 250.049 109.876 250.677 110.387C251.343 110.899 252.434 111.155 253.949 111.155V112.23C253.321 112.196 252.36 112.162 251.066 112.128C249.809 112.06 248.533 112.025 247.239 112.025C245.982 112.025 244.707 112.06 243.413 112.128C242.119 112.162 241.158 112.196 240.529 112.23V111.155C242.045 111.155 243.117 110.899 243.745 110.387C244.411 109.876 244.744 108.903 244.744 107.47V78.2424C244.744 76.7068 244.448 75.5807 243.856 74.8641C243.265 74.1134 242.156 73.738 240.529 73.738V72.6631C241.712 72.7655 242.858 72.8167 243.967 72.8167C245.039 72.8167 246.056 72.7655 247.017 72.6631C248.016 72.5266 248.921 72.3389 249.735 72.1001Z" fill="#FF005B"/>
<path d="M279.355 85.8692V86.8929C278.653 86.9612 278.006 87.2512 277.415 87.7631C276.823 88.275 276.268 89.1793 275.751 90.476L266.656 112.486C266.508 112.486 266.36 112.486 266.212 112.486C266.065 112.486 265.898 112.486 265.713 112.486L255.509 89.8106C254.918 88.4797 254.326 87.6778 253.735 87.4048C253.18 87.0977 252.7 86.9441 252.293 86.9441V85.8692C253.032 85.9033 253.79 85.9545 254.567 86.0228C255.38 86.0569 256.249 86.074 257.173 86.074C258.319 86.074 259.521 86.0569 260.778 86.0228C262.072 85.9886 263.273 85.9375 264.382 85.8692V86.9441C263.458 86.9441 262.626 87.0124 261.887 87.1489C261.184 87.2512 260.722 87.5754 260.5 88.1214C260.316 88.6674 260.5 89.6058 261.055 90.9367L267.987 106.753L267.654 107.009L273.976 91.7045C274.457 90.5784 274.642 89.6911 274.531 89.0428C274.457 88.3603 274.087 87.8484 273.422 87.5072C272.793 87.1659 271.813 86.9612 270.483 86.8929V85.8692C271.148 85.9033 271.721 85.9375 272.202 85.9716C272.682 85.9716 273.144 85.9886 273.588 86.0228C274.069 86.0228 274.586 86.0228 275.141 86.0228C275.991 86.0228 276.749 86.0057 277.415 85.9716C278.117 85.9375 278.764 85.9033 279.355 85.8692Z" fill="#FF005B"/>
<path d="M285.921 112.589C284.406 112.589 283.093 112.333 281.984 111.821C280.875 111.275 280.025 110.524 279.433 109.569C278.878 108.613 278.601 107.504 278.601 106.241C278.601 104.74 278.971 103.511 279.71 102.556C280.487 101.6 281.466 100.833 282.65 100.253C283.833 99.6725 285.071 99.1947 286.365 98.8194C287.696 98.4099 288.953 98.0345 290.136 97.6933C291.319 97.3179 292.28 96.8913 293.02 96.4136C293.796 95.9359 294.184 95.3046 294.184 94.5197V91.3462C294.184 89.9129 293.944 88.821 293.463 88.0702C293.02 87.3195 292.41 86.8247 291.633 86.5858C290.857 86.3128 289.988 86.1763 289.027 86.1763C288.103 86.1763 287.104 86.2958 286.032 86.5346C284.997 86.7735 284.165 87.2683 283.537 88.019C284.239 88.1555 284.849 88.4968 285.367 89.0428C285.884 89.5888 286.143 90.2883 286.143 91.1414C286.143 91.9945 285.847 92.677 285.256 93.1889C284.664 93.6666 283.906 93.9055 282.982 93.9055C281.91 93.9055 281.115 93.5984 280.598 92.9841C280.117 92.3358 279.877 91.6191 279.877 90.8343C279.877 89.9471 280.117 89.2305 280.598 88.6845C281.078 88.1385 281.688 87.6266 282.428 87.1489C283.278 86.6029 284.369 86.1422 285.7 85.7668C287.067 85.3573 288.602 85.1526 290.302 85.1526C291.818 85.1526 293.112 85.3232 294.184 85.6645C295.256 85.9716 296.144 86.4323 296.846 87.0465C297.807 87.8655 298.436 88.8721 298.732 90.0665C299.027 91.2267 299.175 92.6258 299.175 94.2638V108.494C299.175 109.347 299.305 109.961 299.564 110.336C299.859 110.712 300.303 110.899 300.894 110.899C301.301 110.899 301.689 110.814 302.059 110.643C302.429 110.473 302.872 110.2 303.39 109.824L304 110.695C303.224 111.241 302.484 111.701 301.782 112.077C301.079 112.418 300.137 112.589 298.954 112.589C297.881 112.589 296.994 112.418 296.292 112.077C295.589 111.735 295.053 111.241 294.683 110.592C294.351 109.91 294.184 109.057 294.184 108.033C293.186 109.569 291.985 110.712 290.58 111.462C289.212 112.213 287.659 112.589 285.921 112.589ZM287.918 110.541C289.138 110.541 290.265 110.217 291.301 109.569C292.373 108.92 293.334 107.948 294.184 106.651V96.6184C293.741 97.1985 293.094 97.6933 292.243 98.1028C291.393 98.4781 290.469 98.8706 289.471 99.28C288.472 99.6554 287.511 100.116 286.587 100.662C285.7 101.174 284.96 101.856 284.369 102.71C283.777 103.563 283.481 104.672 283.481 106.037C283.481 107.402 283.87 108.494 284.646 109.313C285.459 110.132 286.55 110.541 287.918 110.541Z" fill="#FF005B"/>
<path d="M89.4504 124.811V138.808H88.6069L79.2337 126.148V138.808H78.3797V124.811H79.2337L88.6069 137.452V124.811H89.4504Z" fill="#FF005B"/>
<path d="M98.2925 125.407L92.8977 138.808H92.002L97.6988 124.811H98.3966L98.2925 125.407ZM103.396 138.808L98.0113 125.407L97.9071 124.811H98.5945L104.302 138.808H103.396ZM102.063 134.011V134.732H94.2828V134.011H102.063Z" fill="#FF005B"/>
<path d="M107.874 124.811V138.808H107.03V124.811H107.874Z" fill="#FF005B"/>
<path d="M120.788 138.096V138.808H112.748V138.096H120.788ZM113.123 124.811V138.808H112.269V124.811H113.123Z" fill="#FF005B"/>
<path d="M132.692 138.808H129.099L129.12 138.096H132.692C133.782 138.096 134.74 137.862 135.566 137.395C136.4 136.927 137.052 136.28 137.524 135.453C137.997 134.62 138.233 133.662 138.233 132.579V131.012C138.233 130.204 138.097 129.464 137.826 128.791C137.556 128.118 137.174 127.538 136.681 127.051C136.195 126.564 135.615 126.189 134.942 125.927C134.268 125.657 133.532 125.523 132.734 125.523H129.036V124.811H132.734C133.643 124.811 134.483 124.962 135.254 125.263C136.032 125.558 136.705 125.981 137.274 126.532C137.844 127.077 138.285 127.734 138.597 128.503C138.917 129.265 139.076 130.111 139.076 131.041V132.579C139.076 133.508 138.917 134.357 138.597 135.126C138.285 135.889 137.84 136.546 137.264 137.097C136.695 137.641 136.021 138.064 135.244 138.366C134.473 138.66 133.622 138.808 132.692 138.808ZM129.359 124.811V138.808H128.516V124.811H129.359Z" fill="#FF005B"/>
<path d="M151.803 138.096V138.808H142.961V138.096H151.803ZM143.336 124.811V138.808H142.492V124.811H143.336ZM150.741 131.242V131.963H142.961V131.242H150.741ZM151.782 124.811V125.523H142.961V124.811H151.782Z" fill="#FF005B"/>
<path d="M163.519 135.414C163.519 134.998 163.443 134.626 163.29 134.299C163.138 133.966 162.884 133.671 162.53 133.415C162.183 133.152 161.725 132.909 161.155 132.684C160.586 132.46 159.885 132.242 159.051 132.031C158.288 131.838 157.597 131.63 156.979 131.406C156.368 131.175 155.844 130.912 155.406 130.618C154.976 130.323 154.646 129.974 154.417 129.57C154.188 129.16 154.073 128.676 154.073 128.118C154.073 127.58 154.198 127.096 154.448 126.667C154.698 126.237 155.049 125.872 155.5 125.571C155.958 125.263 156.493 125.029 157.104 124.869C157.722 124.703 158.395 124.619 159.124 124.619C160.145 124.619 161.037 124.799 161.801 125.158C162.565 125.51 163.162 126 163.592 126.628C164.023 127.25 164.238 127.964 164.238 128.772H163.394C163.394 128.112 163.217 127.522 162.863 127.003C162.516 126.484 162.023 126.077 161.384 125.782C160.753 125.481 159.999 125.331 159.124 125.331C158.222 125.331 157.455 125.459 156.823 125.715C156.198 125.971 155.722 126.311 155.396 126.734C155.077 127.151 154.917 127.606 154.917 128.099C154.917 128.452 154.986 128.782 155.125 129.089C155.271 129.397 155.507 129.679 155.833 129.935C156.167 130.191 156.614 130.435 157.177 130.666C157.746 130.89 158.454 131.108 159.301 131.319C160.079 131.505 160.777 131.717 161.395 131.954C162.02 132.185 162.554 132.457 162.999 132.771C163.443 133.085 163.783 133.457 164.019 133.886C164.255 134.315 164.373 134.818 164.373 135.395C164.373 135.966 164.241 136.475 163.978 136.924C163.714 137.366 163.346 137.744 162.874 138.058C162.408 138.366 161.86 138.599 161.228 138.76C160.603 138.92 159.93 139 159.208 139C158.548 139 157.885 138.926 157.219 138.779C156.559 138.632 155.955 138.394 155.406 138.068C154.858 137.741 154.417 137.311 154.084 136.779C153.75 136.248 153.584 135.6 153.584 134.838H154.427C154.427 135.491 154.573 136.042 154.865 136.491C155.156 136.933 155.538 137.286 156.01 137.548C156.483 137.811 156.996 138 157.552 138.116C158.114 138.231 158.666 138.289 159.208 138.289C160.055 138.289 160.801 138.17 161.447 137.933C162.1 137.689 162.606 137.353 162.967 136.924C163.335 136.488 163.519 135.985 163.519 135.414Z" fill="#FF005B"/>
<path d="M168.466 124.811V138.808H167.623V124.811H168.466Z" fill="#FF005B"/>
<path d="M183.651 132.338V137.241C183.484 137.459 183.182 137.705 182.745 137.981C182.314 138.257 181.742 138.497 181.026 138.702C180.311 138.901 179.447 139 178.433 139C177.558 139 176.756 138.853 176.027 138.558C175.305 138.263 174.68 137.84 174.153 137.289C173.625 136.731 173.215 136.071 172.924 135.309C172.639 134.54 172.497 133.687 172.497 132.752V130.695C172.497 129.778 172.632 128.951 172.903 128.214C173.181 127.471 173.573 126.83 174.08 126.292C174.587 125.754 175.191 125.34 175.892 125.052C176.6 124.763 177.385 124.619 178.246 124.619C179.357 124.619 180.29 124.799 181.047 125.158C181.811 125.51 182.408 125.991 182.839 126.599C183.269 127.208 183.533 127.894 183.63 128.657H182.786C182.682 128.067 182.464 127.522 182.13 127.022C181.804 126.516 181.325 126.109 180.693 125.802C180.061 125.488 179.245 125.331 178.246 125.331C177.489 125.331 176.808 125.462 176.204 125.725C175.6 125.981 175.083 126.346 174.653 126.821C174.229 127.295 173.903 127.859 173.674 128.512C173.451 129.166 173.34 129.887 173.34 130.675V132.752C173.34 133.572 173.458 134.322 173.694 135.001C173.937 135.674 174.281 136.257 174.726 136.751C175.177 137.244 175.715 137.625 176.34 137.895C176.972 138.157 177.669 138.289 178.433 138.289C179.239 138.289 179.94 138.215 180.537 138.068C181.141 137.92 181.63 137.744 182.005 137.539C182.387 137.327 182.655 137.132 182.807 136.952V133.059H178.391V132.338H183.651Z" fill="#FF005B"/>
<path d="M198.554 124.811V138.808H197.711L188.337 126.148V138.808H187.483V124.811H188.337L197.711 137.452V124.811H198.554Z" fill="#FF005B"/>
<path d="M211.916 138.096V138.808H203.074V138.096H211.916ZM203.449 124.811V138.808H202.606V124.811H203.449ZM210.854 131.242V131.963H203.074V131.242H210.854ZM211.895 124.811V125.523H203.074V124.811H211.895Z" fill="#FF005B"/>
<path d="M214.707 124.811H219.571C220.571 124.811 221.449 124.968 222.206 125.282C222.963 125.597 223.553 126.055 223.976 126.657C224.407 127.26 224.622 128 224.622 128.878C224.622 129.551 224.466 130.159 224.153 130.704C223.841 131.249 223.417 131.701 222.883 132.06C222.348 132.412 221.744 132.643 221.071 132.752L220.706 132.877H215.113L215.093 132.165H219.998C220.838 132.165 221.536 132.008 222.091 131.694C222.654 131.38 223.074 130.973 223.351 130.473C223.636 129.967 223.778 129.435 223.778 128.878C223.778 128.179 223.608 127.583 223.268 127.09C222.935 126.59 222.452 126.205 221.821 125.936C221.196 125.661 220.446 125.523 219.571 125.523H215.551V138.808H214.707V124.811ZM224.362 138.808L220.3 132.598L221.237 132.588L225.257 138.673V138.808H224.362Z" fill="#FF005B"/>
</g>
<defs>
<filter id="filter0_d_363_5" x="0" y="0" width="308" height="147" filterUnits="userSpaceOnUse" color-interpolation-filters="sRGB">
<feFlood flood-opacity="0" result="BackgroundImageFix"/>
<feColorMatrix in="SourceAlpha" type="matrix" values="0 0 0 0 0 0 0 0 0 0 0 0 0 0 0 0 0 0 127 0" result="hardAlpha"/>
<feOffset dy="4"/>
<feGaussianBlur stdDeviation="2"/>
<feComposite in2="hardAlpha" operator="out"/>
<feColorMatrix type="matrix" values="0 0 0 0 0 0 0 0 0 0 0 0 0 0 0 0 0 0 0.25 0"/>
<feBlend mode="normal" in2="BackgroundImageFix" result="effect1_dropShadow_363_5"/>
<feBlend mode="normal" in="SourceGraphic" in2="effect1_dropShadow_363_5" result="shape"/>
</filter>
</defs>
</svg>
