<svg width="317" height="309" viewBox="0 0 317 309" fill="none" xmlns="http://www.w3.org/2000/svg">
<path d="M202.981 176.156L225.682 176.912C230.024 177.05 234.254 178.727 237.56 181.621C240.866 184.514 243.014 188.42 243.591 192.587L245.708 207.315C247.092 216.943 239.968 225.582 229.95 225.752C154.265 227 85.845 173.531 70.7217 101.148C68.7268 91.5778 75.8394 82.9297 85.7823 82.1657L100.992 80.997C105.312 80.6595 109.704 81.872 113.333 84.4038C116.961 86.9356 119.573 90.6099 120.67 94.7272L126.3 115.995C127.671 121.15 126.558 126.402 123.295 130.352L109.296 147.362C125.47 170.562 148.588 188.653 175.322 199.031L189.261 182.119C190.869 180.164 192.939 178.612 195.315 177.579C197.691 176.546 200.312 176.06 202.981 176.156Z" fill="#04B700"/>
<path fill-rule="evenodd" clip-rule="evenodd" d="M9.49886 309L139.532 298.258C145.751 298.958 152.081 299.319 158.5 299.319C246.037 299.319 317 232.314 317 149.659C317 67.0048 246.037 0 158.5 0C70.9629 0 0 67.0048 0 149.659C0 187.914 15.201 222.817 40.2108 249.276L9.49886 309ZM79.4629 243.887L64.1953 227.735C44.4275 206.821 32.6132 179.502 32.6132 149.659C32.6132 85.5083 87.9883 31.7901 158.5 31.7901C229.012 31.7901 284.387 85.5083 284.387 149.659C284.387 213.81 229.012 267.529 158.5 267.529C153.334 267.529 148.254 267.239 143.274 266.678L140.031 266.313L64.732 272.533L79.4629 243.887Z" fill="#04B700"/>
</svg>
